<svg width="400" height="100" viewBox="0 0 400 100" xmlns="http://www.w3.org/2000/svg" xmlns:xlink="http://www.w3.org/1999/xlink"><title>Artboard</title><defs><path id="a" d="M0 35.984h58.188V0H0z"/><path id="c" d="M0 36.75h59.719V0H0v36.75z"/><path id="e" d="M0 33.688h53.594V0H0v33.688z"/></defs><g fill="none" fill-rule="evenodd"><g stroke="#515252" stroke-width="2" stroke-linecap="round" stroke-linejoin="round"><path d="M40.207 32.894c.02-1.991.288-9.769 1.132-11.572.845-1.804 2.317-3.374 4.2-4.023 1.881-.65 4.17-.24 5.497 1.244 1.685 1.885 1.448 4.728 1.404 7.256-.032 1.853.095 5.216.377 7.048-.081-.345-.163-2.2-.244-2.544M28.902 43.01c-.03-3.666.512-6.486 0-10.116 12.501.042 24.804.072 37.305.115.136 7.818.04 9.3-.364 17.11"/><path d="M26.814 66.512c-.023-1.008.192-1.676.218-2.685.026-1.008-.175-2.09-.884-2.809-.4-.405-.924-.658-1.415-.947-2.5-1.473-4.24-4.011-5.238-6.736-.997-2.724-1.135-5.708-1.324-8.603 6.386-1.367 12.04-1.611 18.812-.737.92 4.45.33 9.622-2.922 12.794-1.005.981-2.226 1.727-3.18 2.756-1.855 2-1.416 5.165-1.621 7.622"/><path d="M32.481 69.684c-4.223-4.151-7.97-3.305-13.698-1.807-2.495.653-4.81 1.857-7.04 3.153-2.18 1.267-4.367 2.694-5.761 4.796-1.393 2.102-1.72 4.41-.27 6.474"/><path d="M15.682 68.978c-.886 1.842-1.974 4.63-2.86 6.472-.256.533-.524 1.08-.968 1.471-.445.39-1.118.584-1.64.306-.86-.458.007-2.47.305-3.4.403-1.252.61-1.633 1.225-2.797M20.36 67.473a15.757 15.757 0 0 0-3.704 8.502c-.038.333-.064.684.071.991.135.307.483.546.802.445.266-.083.417-.355.54-.604 1.46-2.963 3.858-7.794 6.232-10.09M26.578 66.789c-1.208 1.394-2.868 4.976-2.74 6.815.031.449.147.919.467 1.234.32.316.89.406 1.214.095.122-.117.196-.274.268-.427 1.992-4.252.426-1.085 3.233-7.079M44.744 33.29c-2.753 4.263-4.744 6.48-7.76 10.705M59.993 33.636c-9.33 11.917-20.24 22.188-28.462 34.894M65.772 41.676l-5.44 6.235c-1.13 1.293-4.898 4.284-5.948 5.641M31.11 59.966l7.593 7.307M36.885 52.488c3.252 3.258 5.44 4.834 8.513 8.293M34.07 33.13c6.04 8.76 9.9 14.38 17.372 21.956M50.302 33.551c5.305 7.275 7.028 10.093 12.459 16.912"/><path d="M88.287 62.522c-1.164-16.87-23.137-14.235-34.056-8.846-6.349 3.133-14.176 17.453-21.75 15.295.2 3.115 1.762 4.61 4.006 6.543"/><path d="M66.478 74.878c-1.917-2.92-3.522-6.587-2.81-10.008.599-2.875 3.135-5.105 5.976-5.85 2.84-.745 5.9-.173 8.573 1.044 2.789 1.27 5.413 3.267 8.477 3.343 3.493.088 6.81-2.787 7.22-6.256.051-.435.064-.885.24-1.287.144-.33.395-.612.707-.791 1.157-.67 2.75.375 2.956 1.696.207 1.32-.63 2.62-1.712 3.404 1.523.1 2.799 1.624 2.628 3.141-.17 1.516-1.752 2.72-3.259 2.48-.96-.152-1.906-.794-2.827-.485-.538.18-.918.646-1.269 1.092l-7.477 9.494M49.166 65.188a18.184 18.184 0 0 1 8.144-3.512c-.56.893-1.608 1.337-2.389 2.045-.78.708-1.236 2.075-.427 2.751.225.189.534.306.657.573.12.263.015.57-.11.832-1.153 2.407-4.074 3.819-6.677 3.226"/><path d="M34.122 82.3c-1.023-2.484-.618-3.67-1.641-6.155 19.304-3.201 41.516-.631 58.384.13a28277.52 28277.52 0 0 0-4.372 5.59c-.3.384.11.12-.3.384M1 82.288h96.492M45.484 32.894c.02-1.991.288-9.769 1.132-11.572.844-1.804 2.317-3.374 4.2-4.023 1.881-.65 4.17-.24 5.497 1.244 1.685 1.885 1.448 4.728 1.404 7.256-.032 1.853.095 5.216.377 7.048-.081-.345-.163-2.2-.244-2.544M19.092 49.119h18.093"/></g><path fill="#FFF" d="M138.516 82.844v-51.67l18.375-13.23 18.375 13.23v51.67z"/><path d="M156.89 17L137.75 30.78V83.61h38.281V30.781L156.891 17zm-17.608 14.566l17.608-12.679 17.61 12.679v50.513h-35.218V31.566z" fill="#231F1F"/><path d="M156.89 21.594a3.063 3.063 0 1 0 0 6.125 3.063 3.063 0 0 0 0-6.125m0 1.531c.845 0 1.532.687 1.532 1.531 0 .845-.687 1.532-1.531 1.532a1.533 1.533 0 0 1-1.532-1.532c0-.844.687-1.531 1.532-1.531" fill="#231F1F"/><path d="M120.523 64.469c-6.965 0-12.632-5.667-12.632-12.633 0-6.966 5.667-12.633 12.632-12.633 6.966 0 12.633 5.667 12.633 12.633 0 6.966-5.667 12.633-12.633 12.633" fill="#FFF"/><path d="M120.523 38.438c-7.4 0-13.398 5.998-13.398 13.398 0 7.4 5.999 13.398 13.398 13.398 7.4 0 13.399-5.998 13.399-13.398 0-7.4-5.999-13.398-13.399-13.398m0 1.53c6.544 0 11.868 5.324 11.868 11.868 0 6.544-5.324 11.867-11.868 11.867-6.543 0-11.867-5.323-11.867-11.867 0-6.544 5.324-11.867 11.867-11.867" fill="#231F1F"/><path d="M110.953 52.602c0-5.709 4.628-10.336 10.336-10.336M101 82.844h98" stroke="#231F1F" stroke-width="2" stroke-linecap="round" stroke-linejoin="round"/><path d="M185.219 75.188a6.132 6.132 0 0 1-6.125-6.126 6.132 6.132 0 0 1 6.125-6.124 6.132 6.132 0 0 1 6.125 6.124 6.132 6.132 0 0 1-6.125 6.126" fill="#FFF"/><path d="M185.219 62.172a6.89 6.89 0 0 0-6.89 6.89 6.89 6.89 0 0 0 6.89 6.891 6.89 6.89 0 0 0 6.89-6.89 6.89 6.89 0 0 0-6.89-6.891m0 1.531a5.365 5.365 0 0 1 5.36 5.36 5.365 5.365 0 0 1-5.36 5.359 5.365 5.365 0 0 1-5.36-5.36 5.365 5.365 0 0 1 5.36-5.359" fill="#231F1F"/><path d="M183.683 68.101a8.868 8.868 0 0 0 1.501-1.977l.411 4.388c.055.589.113 1.19.349 1.733M156.89 36.906v42.11" stroke="#231F1F" stroke-width="2" stroke-linecap="round" stroke-linejoin="round"/><g><g transform="translate(109.422 46.094)"><mask id="b" fill="#fff"><use xlink:href="#a"/></mask><path d="M29.094 58.188C13.052 58.188 0 45.136 0 29.093S13.052 0 29.094 0s29.093 13.052 29.093 29.094-13.051 29.093-29.093 29.093" fill="#FFF" mask="url(#b)"/></g><g transform="translate(108.656 45.328)"><mask id="d" fill="#fff"><use xlink:href="#c"/></mask><path d="M29.86 0C13.368 0 0 13.369 0 29.86c0 16.49 13.369 29.859 29.86 29.859 16.49 0 29.859-13.369 29.859-29.86C59.719 13.37 46.35 0 29.859 0m0 1.531c15.62 0 28.328 12.708 28.328 28.328S45.48 58.187 29.86 58.187c-15.62 0-28.328-12.707-28.328-28.328 0-15.62 12.708-28.328 28.328-28.328" fill="#231F1F" mask="url(#d)"/></g><g transform="translate(111.719 48.39)"><mask id="f" fill="#fff"><use xlink:href="#e"/></mask><path d="M26.797 0C11.997 0 0 11.997 0 26.797s11.997 26.797 26.797 26.797 26.797-11.998 26.797-26.797C53.594 11.997 41.596 0 26.797 0m0 1.531c13.931 0 25.265 11.335 25.265 25.266 0 13.931-11.334 25.265-25.265 25.265-13.931 0-25.266-11.334-25.266-25.265 0-13.931 11.335-25.266 25.266-25.266" fill="#231F1F" mask="url(#f)"/></g></g><g stroke="#231F1F" stroke-width="2" stroke-linecap="round" stroke-linejoin="round"><path d="M148.677 78.393c-.236-.06-.484-.016-.722.029-.663.122-1.325.246-1.987.369-.425.079-.852.158-1.257.312-.677.259-1.26.716-1.914 1.03M129.265 78.967c.28-.05.266-.463.147-.722-.25-.54-.655-1.025-1.192-1.285-.667-.323-1.446-.27-2.185-.21-.52.042-1.117.127-1.398.568-.127.201-.164.447-.176.685-.072 1.422.64 2.779.69 4.201M152.409 70.3c.121-.306.242-.612.353-.922.485-1.363.755-2.803.797-4.25.032-1.08-.082-2.22-.696-3.111-.74-1.077-2.097-1.595-3.403-1.641-1.152-.042-2.787.785-3.802.301-1.144-.545-1.98-1.35-3.274-1.68a8.503 8.503 0 0 0-5.262.359l-.419-.08c-2.27-.672-4.724-.618-7.019-.038-2.296.581-3.774 1.579-5.715 2.934l-.766 1.531c-1.44 4.936-.71 8.26.562 13.242"/><path d="M153.063 82.078l-1.532-3.062-.318-.395.836-1.016c-.024-2.182-.2-4.853-.518-7.011-.092-1.496-.48-3.008-.788-4.475l.027-1.003c-.05.118-.1.237-.156.353-.362.745-.973 1.336-1.572 1.908l-.372.357-.347.126c-.745-.651-1.77-.852-2.745-1.03-.898-.163-1.813-.327-2.719-.214-1.224.153-2.324.797-3.383 1.43-.699.416-1.404.841-1.973 1.424-.567.582-.99 1.35-.99 2.163a14.633 14.633 0 0 0-3.382.326l1.909 3.689a.73.73 0 0 1 .1.291c.006.108-.036.21-.077.31a32.63 32.63 0 0 0-1.596 5.023"/><path d="M147.817 78.485a7.059 7.059 0 0 1-.27 1.778 2.316 2.316 0 0 1-.119.337M141.588 77.394c.296-.402.601-.812 1.012-1.096.535-.369 1.205-.49 1.855-.509 1.088-.03 2.163.204 3.243.345.388.05.798.086 1.157-.069.36-.154.64-.564.517-.935M143.875 33.078h26.031"/></g><g><path d="M201 82.065h98M284.311 47.933c-1.462 1.6-2.414 3.22-3.69 4.973a29.336 29.336 0 0 0-5.088 11.787" stroke="#42413E" stroke-width="2" stroke-linecap="round" stroke-linejoin="round"/><path d="M280.33 52.47c-.035-1.58-.251-5.088.13-6.62.382-1.535 1.488-3.712 2.232-4.821.198-.295.837-.863 1.017-.983.47-.302 1.167-.64 1.341-.131.535 1.562.201 3.443-.226 5.038-.428 1.595-1.07 3.782-1.958 5.173" stroke="#42413E" stroke-width="2" stroke-linecap="round" stroke-linejoin="round"/><path d="M280.24 49.226c-.002-1.79-.035-3.067-1.288-3.94-1.554-1.085-2.092-.91-3.449-1.085-1.273 1.765-1.672 3.674-.523 5.52.714 1.149 1.84 2.005 3.074 2.555.707.315 1.496.569 1.96 1.187M284.836 46.83c.431-.241.514-.811.599-1.298.376-2.165 1.724-4.096 3.484-5.414 1.76-1.317 3.903-2.057 6.077-2.38.272 1.176-.079 2.43-.717 3.455-.637 1.025-1.541 1.854-2.462 2.634-1.528 1.292-3.89 2.035-5.835 2.502" stroke="#42413E" stroke-width="2" stroke-linecap="round" stroke-linejoin="round"/><path d="M282.692 50.63c2.4.263 4.463.46 6.679-.503.938-.408 1.774-1.015 2.59-1.631 1.112-.84 2.22-1.72 3.038-2.848-3.459-.9-8.04-.117-10.688 2.285" stroke="#42413E" stroke-width="2" stroke-linecap="round" stroke-linejoin="round"/><path d="M280.687 53.527c.948 1.562 2.87 2.343 4.698 2.327 1.828-.015 3.583-.71 5.213-1.537 1.756-.89 3.482-2 4.548-3.654-1.417-.77-3.544-1.152-5.128-.856M269.573 46.524c-.789 11.283-1.373 24.232-1.196 35.541M227.039 47.846c.404 2.01.43 4.075.506 6.125a124.374 124.374 0 0 0 4.037 27.172M269.573 46.524c-2.424-.325-5.633-.773-8.076-.656-10.786.518-23.673 1.46-34.459 1.978M254.384 82.065c.983-.24 4.825-2.215 5.641-2.813 5.205-3.816 6.212-6.888 8.32-11.359" stroke="#42413E" stroke-width="2" stroke-linecap="round" stroke-linejoin="round"/><path d="M254.384 82.065c1.357-2.252 2.725-4.337 3.558-6.83.612-1.829.86-4.036-.37-5.521.851.212 1.492.665 2.342.878.366.091.735.183 1.11.204.504.029 1.004-.069 1.498-.166 1.814-.358 4.396-1.561 5.823-2.737M227.782 54.944c1.2-.367 2.473-.394 3.729-.415a548.117 548.117 0 0 1 36.513.627M237.734 54.606c.346 9.073.82 17.794 3.123 26.576M248.913 54.606c-.042 9.024.545 17.631 1.752 26.574" stroke="#42413E" stroke-width="2" stroke-linecap="round" stroke-linejoin="round"/><path d="M260.903 55.44a220.814 220.814 0 0 0-.279 14.634c.002.124-.026.287-.149.306-.123.02-.062-.251.007-.147M237.734 43.754c.203 1.96.258 3.936.163 5.905M260.046 43.482c.024 2.544.048 3.606.071 6.15" stroke="#42413E" stroke-width="2" stroke-linecap="round" stroke-linejoin="round"/><path d="M269.915 18c-5.654 0-10.238 4.584-10.238 10.239 0 5.654 4.584 10.238 10.238 10.238 5.655 0 10.239-4.584 10.239-10.238 0-5.655-4.584-10.239-10.239-10.239m0 1.508c4.814 0 8.731 3.917 8.731 8.73 0 4.815-3.917 8.732-8.73 8.732-4.815 0-8.732-3.917-8.732-8.731s3.917-8.731 8.731-8.731M209.42 47.369a4.02 4.02 0 1 0-.001 8.039 4.02 4.02 0 0 0 0-8.04m0 1.509a2.515 2.515 0 0 1 2.512 2.511 2.515 2.515 0 0 1-2.512 2.512 2.515 2.515 0 0 1-2.512-2.512 2.515 2.515 0 0 1 2.512-2.511" fill="#42413E"/><path d="M228.013 20.878l.009-.364a17.727 17.727 0 0 1 1.432 4.904 21.786 21.786 0 0 1 6.966-2.708l-.261-3.579c-.006-.08-.017-.167-.077-.217-.059-.048-.143-.045-.219-.039-2.44.213-4.854.71-7.179 1.48-.312.104-.646.23-.827.506M229.405 25.093c-6.617 6.797-14.479 14.03-18.567 22.591M210.604 54.7c1.94 9.094 3.004 13.799 5.967 22.613M208.786 78.514c.412.797.547 2.173.6 3.069.002.054-.006.124-.059.136-.052.013-.044-.106-.005-.069" stroke="#42413E" stroke-width="2" stroke-linecap="round" stroke-linejoin="round"/><path d="M208.786 78.514c1.788-.725 3.737-.947 5.661-1.083a71.644 71.644 0 0 1 6.649-.16c1.315.028 2.933-.385 4.077.264.192 1.312.222 2.649.09 3.969M268.854 64.428c5.636.837 12.151 1.866 17.787 2.702.043 4.599-1.903 10.104-4.129 14.935M269.062 69.202c5.05 1.056 11.403 1.27 16.44 2.75M228.314 63.935c11.995-.491 28.166.34 40.063 1.944M229.564 72.17c10.992-.648 20.261-1.11 28.733.83M229.526 25.256c-.107-.033.03-.214.123-.15.094.063.085.201.064.312-.733 4.081-2.96 10.168-3.567 11.82 1.349-.79.957-.661 1.486-.83 7.273-2.322 9.568-3.268 17.19-3.684M236.783 22.937c4.193 3.169 5.407 5.24 8.04 9.788M269.188 25.41a9.85 9.85 0 0 1 .232 4.302c1.24-.509 2.65-.493 3.949-.165M266.54 21.87a9.817 9.817 0 0 0-2.695 2.794M224.88 41.396a333.91 333.91 0 0 1-6.923 20.875l.004-.937M247.287 36.108c-.052-.186.283-.147.418-.009l7.512 7.722-.882-.768M245.52 66.162a31.659 31.659 0 0 1-4.357 2.885" stroke="#42413E" stroke-width="2" stroke-linecap="round" stroke-linejoin="round"/><path d="M241.333 65.854l4.504 3.395-.234-.25M257.08 57.167c-.052-.043.08-.099.101-.035.023.064-.037.125-.09.168l-4.732 3.761c-.068.055-.144.14-.101.217.042.076.169-.07.082-.068" stroke="#42413E" stroke-width="2" stroke-linecap="round" stroke-linejoin="round"/><path d="M252.495 57.217a51.74 51.74 0 0 0 4.856 4.92c.084-.147-.013-.363-.178-.397" stroke="#42413E" stroke-width="2" stroke-linecap="round" stroke-linejoin="round"/></g><g transform="translate(301 5)"><ellipse fill="#FFCB2B" cx="72.211" cy="25.789" rx="25.789" ry="25.789"/><ellipse fill="#F80" cx="25.789" cy="35.074" rx="25.789" ry="25.789"/><g stroke="#42413E" stroke-width="2" stroke-linecap="round" stroke-linejoin="round"><path d="M52.545 34.042c.934-.346 1.924-.734 2.513-1.564.645-.908.658-2.127.645-3.256-.005-.357-.011-.725-.143-1.055-.124-.307-.347-.556-.566-.799-.454-.504-.922-1.018-1.516-1.326-.595-.308-1.352-.371-1.9.02M51.534 34.042c.336.095 1.224.47 1.47.736.71.772.832 2.073.343 3.027a2.758 2.758 0 0 1-2.521 1.483c.593.267.88 1.065.752 1.747-.13.683-.594 1.244-1.134 1.623a3.67 3.67 0 0 1-1.96.668M30.947 54.265c.664.356 1.27.825 1.97 1.103.607.241 1.268.33 1.922.337 2.954.032 5.862-1.688 7.268-4.3.166-.307.118-.803-.064-1.102-.108-.001.109.001 0 0 1.892 1.05 4.064.866 5.788-.441 1.725-1.307 1.945-4.42 1.46-6.536M10.848 51.579c-.713.379-1.39.825-2.016 1.33-.776.626-1.518 1.426-1.603 2.41-.039.452.067.907.226 1.333.469 1.254 1.438 2.344 2.69 2.857 1.253.514 2.779.403 3.876-.384.057-.04.12-.104.093-.168-.026-.064.338-.172.4-.139a3.71 3.71 0 0 0 2.332 1.911c.561.152 1.156.17 1.731.079 2.148-.34 4.28-2.223 4.278-4.366.336.707 1.19 1.066 1.983 1.033.793-.032 1.533-.384 2.22-.775.63-.358 1.48-.917 2.059-1.35.57-.425 1.794-.863 1.83-1.567M33.01 44.358c1.086-1.288 2.918-1.62 4.29-.78.084-1.394.83-2.71 1.9-3.346M16.505 50.287c.931-1.041 2.17-1.027 3.095.037M51.579 41.533l.729 1.078c.395.586.798 1.179 1.337 1.637a4.01 4.01 0 0 0 3.61.788c.339-.096.726-.23 1.02-.037.188.122.276.343.381.54.55 1.02 1.77 1.542 2.934 1.578 1.165.037 2.3-.328 3.407-.69l.203-.354c.944 1.113 1.825 2.941 3.242 3.31.697.18 1.433.148 2.15.071a17.774 17.774 0 0 0 6.997-2.293c.997.944 2.399.974 3.75.706 1.351-.267 2.57-.975 3.715-1.735.843-.558 1.735-1.263 1.864-2.26 2.632.867 5.844-.356 7.363-2.661.394-.596.69-1.296.612-2.005-.04-.361-.176-.706-.327-1.038M66.021 36.221c1.4-.313 2.872.013 4.126.916M76.337 38.096c.704-.65 1.713-.62 2.396.072.439-.867 1.04-1.584 1.73-2.063"/><path d="M18.568 60.676l31.962 28.04c.12-15.753-.408-30.669-.289-46.421M85.621 46.421L51.58 89.747M93.753 39.2a24.838 24.838 0 0 0 2.184-10.22c0-13.726-11.089-24.854-24.768-24.854-11.969 0-21.406 6.345-23.716 17.67"/><path d="M9.306 51.579a24.006 24.006 0 0 1-5.18-14.917c0-13.411 10.998-24.283 24.563-24.283 9.525 0 17.784 5.36 21.858 13.195M40.232 52.61c3.243 1.667 4.756 6.245 3.185 9.642-.186.401-.41.793-.484 1.23-.087.502.03 1.014.149 1.509 1.21 5.045 2.682 10.017 4.153 14.986l.7 2.37c.528 1.778 1.055 3.557 1.58 5.337M71.179 49.516c-.13 1.57-.265 3.162-.815 4.638-.55 1.475-1.578 2.844-3.032 3.442-.644.265-1.352.373-1.96.71-.66.366-1.15.973-1.556 1.608-1.346 2.113-1.887 4.622-2.604 7.023-1.715 5.748-4.533 11.091-7.333 16.392l-2.3 4.355"/></g></g></g></svg>