<svg width="650" height="216" viewBox="0 0 650 216" xmlns="http://www.w3.org/2000/svg" xmlns:xlink="http://www.w3.org/1999/xlink"><title>iconSpriteYellow</title><defs><path d="M0 6.134S11.797 0 26.106 0C40.415 0 51.1 6.818 63.538 8.521 75.975 10.225 91.88 6.134 91.88 6.134v47.14s-14.66 4.524-27.217 2.557c-12.556-1.967-25.473-7.29-38.557-7.29C13.022 48.542 0 53.276 0 53.276V6.135z" id="a"/><mask id="d" x="0" y="0" width="91.88" height="56.326" fill="#fff"><use xlink:href="#a"/></mask><path d="M7.692 13.782s5.387-6.135 19.696-6.135c14.309 0 24.995 6.818 37.432 8.521 12.437 1.704 34.753-3.661 34.753-3.661v48.415s-21.07 4.523-33.627 2.556c-12.557-1.967-25.474-7.289-38.558-7.289S7.692 59.647 7.692 59.647V13.782z" id="b"/><mask id="e" x="0" y="0" width="91.88" height="56.326" fill="#fff"><use xlink:href="#b"/></mask><path d="M0 6.134S11.797 0 26.106 0C40.415 0 51.1 6.818 63.538 8.521 75.975 10.225 91.88 6.134 91.88 6.134v47.14s-14.66 4.524-27.217 2.557c-12.556-1.967-25.473-7.29-38.557-7.29C13.022 48.542 0 53.276 0 53.276V6.135z" id="c"/><mask id="f" x="0" y="0" width="91.88" height="56.326" fill="#fff"><use xlink:href="#c"/></mask><path d="M37.037 35.164a7.406 7.406 0 0 1-7.406 7.328h-.001v24.016H9.26V42.492H7.406A7.395 7.395 0 0 1 0 35.089V7.403C0 3.313 3.32 0 7.407 0h22.224a7.393 7.393 0 0 1 7.406 7.328v27.836z" id="g"/><path d="M37.037 35.164a7.406 7.406 0 0 1-7.406 7.328h-.001v24.016H9.26V42.492H7.406A7.395 7.395 0 0 1 0 35.089V7.403C0 3.313 3.32 0 7.407 0h22.224a7.393 7.393 0 0 1 7.406 7.328v27.836z" id="i"/><path d="M37.037 35.164c-.04 4.054-3.345 7.328-7.407 7.328v24.016H9.26V42.492H7.405c-4.091 0-7.406-3.3-7.406-7.403V7.403A7.405 7.405 0 0 1 7.406 0H29.63a7.393 7.393 0 0 1 7.407 7.328v27.836z" id="k"/><path d="M13.571.98C9.885.98 6.88 3.607 6.862 6.854c-.003.204.012.41.036.618-2.49.944-4.126 3.09-4.138 5.525a5.525 5.525 0 0 0 .994 3.166C1.738 17.325.477 19.325.466 21.475c-.014 2.38 1.442 4.52 3.773 5.642a4.893 4.893 0 0 0-.337 1.753c-.017 2.978 2.655 5.426 6.004 5.556l-.017 2.822a.771.771 0 0 0 .766.777l5.501.032a.774.774 0 0 0 .776-.769l.014-2.822c3.35-.092 6.05-2.512 6.065-5.488a4.858 4.858 0 0 0-.316-1.754c2.343-1.096 3.822-3.22 3.837-5.602.01-2.15-1.227-4.161-3.23-5.347a5.514 5.514 0 0 0 1.031-3.157c.015-2.43-1.596-4.594-4.074-5.567.026-.21.04-.414.043-.618C20.32 3.673 17.322 1 13.615.98h-.044z" id="m"/><path d="M.86 1.053A.768.768 0 0 0 .632 2.12l2.031 3.12c.147.225.391.348.64.348a.761.761 0 0 0 .427-.123.772.772 0 0 0 .223-1.068l-2.028-3.12A.772.772 0 0 0 .86 1.054z" id="o"/><path d="M.902 1.059a.773.773 0 0 0-.225 1.068l2.032 3.118c.147.225.391.349.642.349a.753.753 0 0 0 .425-.124.773.773 0 0 0 .223-1.068L1.97 1.283A.772.772 0 0 0 .902 1.06z" id="q"/><path d="M1.062.924a.771.771 0 0 0-.77.768L.169 23.427a.772.772 0 0 0 1.543.01L1.835 1.7a.772.772 0 0 0-.768-.777h-.006z" id="s"/><path d="M2.376 1.333L.309 4.425A.779.779 0 0 0 .522 5.5a.768.768 0 0 0 1.069-.216L3.656 2.19a.772.772 0 1 0-1.28-.857z" id="u"/><path d="M2.42 1.339L.356 4.43a.778.778 0 0 0 .213 1.074.767.767 0 0 0 1.069-.218l2.065-3.092a.771.771 0 1 0-1.282-.856z" id="w"/><path id="y" d="M.868.345l.577 7.286 3.07-.07L4.767.26z"/><path d="M7.769 9.889C7.857 3.867 4.792 1.147.892 1.012c0 0-1.952 7.401 6.877 8.877z" id="A"/><path d="M5.468 2.428C-.11 5.966-1.202 12.832 1.203 20.877c.44 1.479 2.372 7.303 6.486 8.106 3.43.664 6.212-.2 7.19-.383.938-.179 1.812-.092 2.762-.006.975.09 2.031.178 3.325-.02 5.44-.834 6.745-6.903 7.585-9.308.979-2.809 1.762-10.963-2.9-15.32C22.807 1.29 18.649 0 14.536 0 11.254 0 8 .822 5.468 2.428z" id="C"/><path d="M6.29 3.169c-5.874 3.726-7.393 10.91-4.75 19.75.444 1.497 1.077 3.076 1.982 4.574 1.408 2.33 3.176 3.901 5.385 4.333 2.168.42 4.167.33 6.253-.085.376-.075 1.28-.28 1.369-.297a5.232 5.232 0 0 1 1.06-.083c.357.003.612.022 1.386.093 1.54.14 2.408.154 3.602-.029 3.24-.497 5.42-2.558 6.922-5.74.357-.761.662-1.546.97-2.466.115-.343.518-1.611.605-1.86 1.717-4.922 1.025-12.59-3.2-16.54-3.027-2.824-7.489-4.26-11.937-4.26-3.45 0-6.892.864-9.647 2.61zm3.055 26.398C7.89 29.282 6.593 28.129 5.49 26.3 4.702 25 4.136 23.587 3.74 22.263c-2.378-7.957-1.085-14.064 3.78-17.15C12.966 1.663 21.72 2.22 26.305 6.503c3.439 3.214 4.047 9.947 2.598 14.098-.1.286-.509 1.573-.613 1.886-.282.84-.556 1.547-.87 2.216-1.205 2.556-2.823 4.085-5.191 4.448-.963.148-1.677.137-3.045.011-.84-.076-1.125-.097-1.568-.102a7.463 7.463 0 0 0-1.514.124c-.139.026-1.06.234-1.39.3-1.01.2-1.988.314-2.972.314-.787 0-1.58-.073-2.395-.23z" id="E"/><path id="G" d="M.797 4.928l.055 1.606.017.534.052 1.606 16.813 2.788.679-3.773-7.667-1.216 7.569-1.727-.926-3.72z"/><path d="M3.434 5.377C1.332 6.52.204 8.832.302 11.777c.228 2.804 1.515 5.305 3.55 6.178 3.262 1.498 25.054 4.287 30.207 2.373 3.43-1.453 4.485-5.91 4.362-9.656-.127-3.744-1.474-8.12-4.854-9.214-.896-.266-2.261-.382-3.93-.382-8.145 0-23.478 2.765-26.203 4.301z" id="I"/><path id="K" d="M1.128.496l.19 5.677 1.887-.064L3.018.432z"/><path d="M4.571 4.736C2.077 6.092.744 8.82.855 12.176c.27 3.36 1.835 6.164 4.245 7.198 4.36 2.005 26.257 4.178 31.059 2.395 3.632-1.537 5.274-5.817 5.111-10.774-.167-4.942-2.069-9.112-5.648-10.27-.907-.27-2.354-.389-4.142-.389-8.188 0-23.526 2.494-26.909 4.4zm1.461 12.535c-1.54-.662-2.67-2.682-2.88-5.199-.076-2.523.85-4.407 2.532-5.322C9.299 4.713 30.528 1.612 34.94 2.925c2.391.773 3.893 4.066 4.031 8.147.136 4.11-1.165 7.502-3.66 8.558-1 .371-3.005.528-5.525.528-7.887 0-20.821-1.54-23.755-2.887z" id="M"/><path id="O" d="M.085.765l.19 5.678 1.888-.063L1.976.702z"/><path d="M.345 9.014c0 4.586 1.796 8.44 4.546 8.44s4.545-3.854 4.545-8.44C9.436 4.43 7.64.575 4.89.575S.345 4.43.345 9.015zm2.299 0c0-3.465 1.245-6.137 2.247-6.137 1.002 0 2.247 2.672 2.247 6.137 0 3.467-1.245 6.138-2.247 6.138-1.002 0-2.247-2.671-2.247-6.138z" id="Q"/><path d="M2.578 6.03c-2.426 3.89-2.945 8.113-.611 9.573 2.328 1.459 5.893-.856 8.322-4.743 2.428-3.888 2.947-8.108.614-9.57A2.93 2.93 0 0 0 9.33.847c-2.177 0-4.822 2.096-6.75 5.183zm.607 7.62c-.85-.532-.492-3.46 1.343-6.398 1.834-2.94 4.305-4.544 5.157-4.01.85.532.49 3.458-1.346 6.397-1.601 2.563-3.686 4.111-4.756 4.111a.735.735 0 0 1-.398-.1z" id="S"/><path d="M7.987.74c-4.5.84-7.956 3.317-7.45 6.022.506 2.707 4.62 3.77 9.12 2.928 4.502-.843 7.954-3.317 7.45-6.025-.39-2.097-2.952-3.207-6.182-3.207-.936 0-1.927.092-2.938.282zM2.795 6.338c-.184-.985 2.213-2.701 5.614-3.335 3.402-.637 6.255.1 6.437 1.084.185.988-2.21 2.704-5.612 3.34-.881.165-1.725.237-2.496.237-2.205 0-3.805-.593-3.943-1.326z" id="U"/><path d="M0 1.822v43.295c0 .872.711 1.58 1.587 1.58s1.588-.708 1.588-1.58V1.822C3.175.948 2.463.24 1.587.24.711.24 0 .948 0 1.822z" id="W"/><path d="M0 1.822v43.295c0 .872.711 1.58 1.587 1.58s1.588-.708 1.588-1.58V1.822C3.175.948 2.463.24 1.587.24.711.24 0 .948 0 1.822z" id="Y"/><path d="M0 1.822v43.295c0 .872.71 1.58 1.587 1.58.876 0 1.588-.708 1.588-1.58V1.822C3.175.948 2.463.24 1.587.24.71.24 0 .948 0 1.822z" id="aa"/><path d="M0 1.822v43.295c0 .872.711 1.58 1.587 1.58s1.588-.708 1.588-1.58V1.822C3.175.948 2.463.24 1.587.24.711.24 0 .948 0 1.822z" id="ac"/><path d="M2.243 0C1.367 0 .656.708.656 1.58c0 .872.71 1.58 1.587 1.58h82.952c.876 0 1.588-.708 1.588-1.58 0-.872-.712-1.58-1.588-1.58H2.243z" id="ae"/><path d="M2.243 0C1.367 0 .656.708.656 1.58c0 .872.71 1.58 1.587 1.58h82.952c.876 0 1.588-.708 1.588-1.58 0-.872-.712-1.58-1.588-1.58H2.243z" id="ag"/><path d="M2.243 0C1.367 0 .656.708.656 1.58c0 .872.71 1.58 1.587 1.58h82.952c.876 0 1.588-.708 1.588-1.58 0-.872-.712-1.58-1.588-1.58H2.243z" id="ai"/><path d="M0 1.58v11.34c0 .873.711 1.581 1.587 1.581s1.588-.708 1.588-1.581V1.58C3.175.708 2.463 0 1.587 0 .711 0 0 .708 0 1.58z" id="ak"/><path d="M0 1.58v11.34c0 .873.711 1.581 1.587 1.581s1.588-.708 1.588-1.581V1.58C3.175.708 2.463 0 1.587 0 .711 0 0 .708 0 1.58z" id="am"/><path d="M0 1.58v11.34c0 .873.711 1.581 1.587 1.581s1.588-.708 1.588-1.581V1.58C3.175.708 2.463 0 1.587 0 .711 0 0 .708 0 1.58z" id="ao"/><path id="aq" d="M0 3.16h95.378V0H0z"/></defs><g fill="none" fill-rule="evenodd"><g transform="translate(550 76)" stroke="#42413E"><use mask="url(#d)" stroke-width="5.128" xlink:href="#a"/><use mask="url(#e)" stroke-width="5.128" xlink:href="#b"/><use mask="url(#f)" stroke-width="5.128" fill="#FEC825" xlink:href="#c"/><path d="M16.667 7.488s4.981-1.46 11.38-1.04c6.4.42 9.686 1.903 15.033 3.424 8.031 2.285 17.525 6.853 32.262 5.16M16.667 41.647s11.618-2.938 30.157 2.03c13.727 3.68 18.42 5.875 28.468 4.49" stroke-width="2.564" stroke-linecap="square"/><path d="M8.574 3.824a7.444 7.444 0 0 1 1.564 4.569c0 4.187-3.47 7.582-7.749 7.582-.376 0-.745-.026-1.107-.077m0 25.305a7.908 7.908 0 0 1 2.214-.314c4.28 0 7.749 3.394 7.749 7.582 0 .173-.006.344-.018.514m71.613 4.906a7.418 7.418 0 0 1-.748-3.254c0-4.187 3.47-7.582 7.75-7.582.375 0 .745.026 1.106.077m0-26.388a7.908 7.908 0 0 1-2.214.314c-4.28 0-7.749-3.394-7.749-7.582 0-.186.007-.37.02-.552" stroke-width="2.564"/><path d="M51.745 22.752c0-2.77-2.4-3.634-5.36-3.634-2.96 0-5.36.503-5.36 3.634 0 3.13 2.4 3.634 5.36 3.634M41.026 30.399c0 2.852 2.4 3.634 5.36 3.634 2.96 0 5.359-.92 5.359-3.634s-2.4-3.634-5.36-3.634" stroke-width="2.564" stroke-linecap="round" stroke-linejoin="round"/><path d="M46.154 17.843v18.17" stroke-width="2.564" stroke-linecap="round"/><path d="M84.615 22.941v15.011M7.692 19.118V34.34" stroke-width="2.564" stroke-linecap="square"/></g><g fill="#42413E"><path d="M270 54c-8.181 0-14.815 6.618-14.815 14.78 0 8.162 6.634 14.78 14.815 14.78s14.815-6.618 14.815-14.78C284.815 60.618 278.18 54 270 54m0 3.695c6.126 0 11.111 4.973 11.111 11.085 0 6.111-4.985 11.084-11.111 11.084s-11.111-4.973-11.111-11.084c0-6.112 4.985-11.085 11.111-11.085M301.481 67.35c-7.159 0-12.962 5.79-12.962 12.931 0 7.143 5.803 12.933 12.962 12.933 7.16 0 12.963-5.79 12.963-12.933 0-7.142-5.803-12.932-12.963-12.932m0 3.695c5.106 0 9.26 4.144 9.26 9.237 0 5.094-4.154 9.238-9.26 9.238-5.105 0-9.259-4.144-9.259-9.238 0-5.093 4.154-9.237 9.26-9.237M238.519 67.35c-7.16 0-12.963 5.79-12.963 12.931 0 7.143 5.803 12.933 12.963 12.933 7.159 0 12.962-5.79 12.962-12.933 0-7.142-5.803-12.932-12.962-12.932m0 3.695c5.105 0 9.259 4.144 9.259 9.237 0 5.094-4.154 9.238-9.26 9.238-5.105 0-9.259-4.144-9.259-9.238 0-5.093 4.154-9.237 9.26-9.237"/></g><g transform="translate(220 96.492)"><mask id="h" fill="#fff"><use xlink:href="#g"/></mask><path d="M29.631 42.492c4.087 0 7.406-3.315 7.406-7.401V7.4C37.037 3.3 33.722 0 29.63 0H7.405C3.32 0 0 3.314 0 7.4v27.69c0 4.102 3.316 7.402 7.405 7.402H9.26v24.016h20.37V42.492h.002z" fill="#FEC825" mask="url(#h)"/></g><g transform="translate(220 96.492)"><mask id="j" fill="#fff"><use xlink:href="#i"/></mask><path d="M29.631 42.492c4.087 0 7.406-3.315 7.406-7.401V7.4C37.037 3.3 33.722 0 29.63 0H7.405C3.32 0 0 3.314 0 7.4v27.69c0 4.102 3.316 7.402 7.405 7.402H9.26v24.016h20.37V42.492h.002z" stroke="#42413E" stroke-width="7.407" mask="url(#j)"/></g><path d="M312.594 138.983c4.087 0 7.406-3.314 7.406-7.4v-27.69c0-4.102-3.315-7.401-7.406-7.401h-22.226c-4.085 0-7.405 3.314-7.405 7.4v27.69c0 4.101 3.316 7.401 7.405 7.401h1.854V163h20.37v-24.017h.002z" fill="#FEC825"/><g transform="translate(282.963 96.492)"><mask id="l" fill="#fff"><use xlink:href="#k"/></mask><path d="M29.631 42.492c4.087 0 7.406-3.315 7.406-7.401V7.4C37.037 3.3 33.722 0 29.63 0H7.405C3.32 0 0 3.314 0 7.4v27.69c0 4.102 3.316 7.402 7.405 7.402H9.26v24.016h20.37V42.492h.002z" stroke="#42413E" stroke-width="7.407" mask="url(#l)"/></g><g><path d="M260.742 161.153v-25.865h-3.687c-3.073 0-5.573-2.492-5.573-5.553V96.503c0-3.062 2.5-5.554 5.573-5.554h25.89c3.073 0 5.574 2.492 5.574 5.554v33.232c0 3.06-2.501 5.553-5.574 5.553h-3.685v25.865h-18.518z" fill="#FEC825"/><path d="M282.945 89.102h-25.89c-4.091 0-7.425 3.312-7.425 7.4v33.233c0 4.1 3.324 7.4 7.424 7.4h1.836V163h22.222v-25.864h1.833c4.09 0 7.426-3.313 7.426-7.401V96.503c0-4.1-3.326-7.401-7.426-7.401m0 3.695c2.052 0 3.722 1.662 3.722 3.706v33.232c0 2.043-1.67 3.706-3.722 3.706h-5.537V159.306h-14.815V133.44h-5.539a3.717 3.717 0 0 1-3.72-3.706V96.503a3.717 3.717 0 0 1 3.72-3.706h25.891" fill="#42413E"/></g><g><path d="M171.76 83.368h-53.165c.027 0-.329.357 0 1.264l-6.33 48h54.431l6.33-48c0-.907-.356-1.264-1.267-1.264" stroke="#979797" stroke-width="1.266" fill="#FEC825"/><path d="M192.868 122.227c4.43.992 7.067 6.034 5.891 11.265-1.176 5.23-5.721 8.663-10.15 7.671-4.43-.993-7.067-6.035-5.891-11.265 1.176-5.23 5.72-8.664 10.15-7.67" fill="#FEFEFE"/><path d="M191.417 128.678c1.412.316 2.252 1.922 1.877 3.59-.374 1.666-1.822 2.76-3.234 2.444-1.412-.316-2.253-1.923-1.877-3.59.375-1.666 1.823-2.76 3.234-2.444" fill="#FEC825"/><path d="M129.875 122.227c4.429.992 7.067 6.034 5.89 11.265-1.175 5.23-5.72 8.663-10.15 7.671-4.43-.993-7.067-6.035-5.89-11.265 1.175-5.23 5.72-8.664 10.15-7.67" fill="#FEFEFE"/><path d="M128.424 128.678c1.411.316 2.252 1.922 1.877 3.59-.375 1.666-1.823 2.76-3.234 2.444-1.413-.316-2.253-1.923-1.877-3.59.374-1.666 1.823-2.76 3.234-2.444" fill="#FEC825"/><path d="M182.88 117.474h-6.728c-.867 0-1.57-.567-1.57-1.263 0-.697.703-1.264 1.57-1.264h6.728c.867 0 1.57.567 1.57 1.264 0 .696-.703 1.263-1.57 1.263M161.32 125.053h-20.893c-.87 0-1.579-.567-1.579-1.264 0-.696.708-1.263 1.579-1.263h20.893c.872 0 1.579.567 1.579 1.263 0 .697-.707 1.264-1.58 1.264" fill="#42413E"/><path d="M204.582 130.128l-3.968-.006h-.002c-.016 0-.027.009-.042.009-.112-1.62-.53-3.184-1.262-4.586-1.33-2.544-3.495-4.264-6.096-4.845-2.604-.588-5.297.05-7.587 1.782-2.212 1.671-3.788 4.182-4.439 7.074-.044.2-.072.401-.107.602-.05-.005-.093-.029-.143-.029h-11.78l4.919-37.857c3.207-.032 11.186-.122 15.802-.175h.052c1.598 0 3.07.8 3.945 2.145l12.745 19.622c.24.334.34.741.277 1.15l-2.314 15.114zm-7.354 3.021c-.489 2.167-1.65 4.036-3.272 5.263-1.542 1.167-3.317 1.601-5.003 1.223-3.578-.803-5.688-5.016-4.704-9.393.49-2.168 1.65-4.039 3.271-5.264 1.18-.892 2.497-1.355 3.805-1.355.402 0 .803.044 1.2.132 1.684.378 3.104 1.529 4 3.24.94 1.8 1.19 3.984.703 6.154zm-31.244-3.02h-28.408c-.111-1.62-.529-3.182-1.262-4.584-1.33-2.544-3.495-4.264-6.095-4.845-2.604-.588-5.296.05-7.587 1.782-2.213 1.671-3.789 4.182-4.438 7.074-.043.192-.069.383-.103.573h-3.745l5.715-45.902h51.637l-5.714 45.902zm-31.75 3.02c-.487 2.167-1.65 4.036-3.272 5.263-1.542 1.167-3.318 1.601-5.002 1.223-3.579-.803-5.689-5.016-4.704-9.393.487-2.17 1.65-4.037 3.27-5.264 1.18-.892 2.497-1.355 3.806-1.355.401 0 .802.044 1.199.132 1.684.378 3.105 1.529 4 3.24.941 1.8 1.19 3.984.703 6.154zm74.978-21.05l-12.704-19.561a7.81 7.81 0 0 0-6.58-3.574h-.085c-4.534.053-12.296.14-15.594.175l.684-5.494c.008-.064.013-.129.013-.193 0-1.3-1.06-2.357-2.361-2.357h-53.22c-1.26 0-2.293.993-2.356 2.234l-5.996 48.175a1.562 1.562 0 0 0 1.557 1.758h5.35c.327 4.594 3.176 8.493 7.351 9.428a8.612 8.612 0 0 0 1.903.212c1.982 0 3.948-.68 5.684-1.993 2.213-1.672 3.789-4.184 4.44-7.075.043-.19.07-.381.103-.572h43.511c.327 4.594 3.178 8.493 7.353 9.428.63.143 1.267.212 1.902.212 1.981 0 3.948-.68 5.684-1.993 2.212-1.672 3.79-4.184 4.439-7.075.047-.207.077-.414.114-.621.07.01.133.041.205.041l4.285.007c1.376 0 2.563-1.061 2.76-2.45l2.345-15.324c.187-1.22-.106-2.444-.787-3.388z" fill="#42413E"/><path d="M162.687 142.737h-17.856c-.866 0-1.57-.567-1.57-1.263 0-.697.704-1.263 1.57-1.263h17.856c.867 0 1.57.566 1.57 1.263 0 .696-.703 1.263-1.57 1.263M175.734 142.737h-8.703c-.867 0-1.57-.567-1.57-1.263 0-.697.703-1.263 1.57-1.263h8.703c.867 0 1.57.566 1.57 1.263 0 .696-.703 1.263-1.57 1.263M124.133 74.526h-2.845c-.867 0-1.57-.566-1.57-1.263s.703-1.263 1.57-1.263h2.845c.867 0 1.57.566 1.57 1.263s-.703 1.263-1.57 1.263M134.042 74.526h-5.068c-.867 0-1.57-.566-1.57-1.263s.703-1.263 1.57-1.263h5.068c.867 0 1.57.566 1.57 1.263s-.703 1.263-1.57 1.263M164.289 74.526h-21.027c-.867 0-1.57-.566-1.57-1.263s.703-1.263 1.57-1.263h21.027c.867 0 1.57.566 1.57 1.263s-.703 1.263-1.57 1.263" fill="#42413E"/><path d="M178.23 96.758h9.965c1.01 0 1.957.485 2.547 1.303l5.98 8.801c.742 1.037.01 2.793-1.266 2.793h-18.729l1.504-12.897z" fill="#FEFEFE"/><path d="M178.49 108.09h16.966c-.04-.028.021-.244-.014-.324l-6-8.828c-.267-.37-.743-.614-1.247-.614h-8.567l-1.138 9.766zm16.966 3.132h-18.73a1.57 1.57 0 0 1-1.558-1.747l1.504-12.898a1.567 1.567 0 0 1 1.558-1.386h9.965c1.509 0 2.938.73 3.82 1.953l6.006 8.841c.686.956.76 2.34.166 3.494-.563 1.091-1.583 1.743-2.731 1.743z" fill="#42413E"/></g><g><path fill="#FFF" d="M380.746 77.794l23.88 38.618h-49.253l23.88-38.618z"/><path fill="#FEC825" d="M356.866 116.412l-23.88 38.617v1.486h94.029l1.492-1.486-23.88-38.617z"/><path d="M380 79.28l-45.522 75.75h91.044L380 79.28zm48.084 74.225c1.19 1.98-.243 4.495-2.562 4.495h-91.044c-2.319 0-3.752-2.515-2.562-4.495l45.522-75.75c1.159-1.928 3.965-1.928 5.124 0l45.522 75.75z" fill="#42413E"/><path fill="#42413E" d="M344.925 134.235h70.149v2.971h-70.149z"/><path fill="#42413E" d="M377.761 114.926h2.985v20.794h-2.985z"/><path fill="#42413E" d="M356.866 113.441h46.269v2.971h-46.269zM382.239 58.485c0-.82-.668-1.485-1.493-1.485-.824 0-1.492.665-1.492 1.485V70.46c0 .82.668 1.485 1.492 1.485.825 0 1.493-.665 1.493-1.485V58.485zM362.638 67.745a1.497 1.497 0 0 0-2.04-.544 1.481 1.481 0 0 0-.546 2.029l4.523 7.795c.412.71 1.325.954 2.039.544.713-.41.958-1.319.546-2.03l-4.522-7.794zM401.487 69.23a1.481 1.481 0 0 0-.547-2.029 1.497 1.497 0 0 0-2.039.544l-4.522 7.795a1.481 1.481 0 0 0 .546 2.029c.714.41 1.627.166 2.04-.544l4.522-7.795zM410.822 85.065c.714-.41.959-1.319.546-2.03a1.497 1.497 0 0 0-2.038-.543l-7.833 4.5a1.481 1.481 0 0 0-.547 2.03c.412.71 1.325.953 2.04.543l7.832-4.5zM350.353 82.492a1.497 1.497 0 0 0-2.039.544 1.481 1.481 0 0 0 .547 2.029l7.833 4.5c.714.41 1.626.167 2.039-.544a1.481 1.481 0 0 0-.547-2.029l-7.833-4.5zM377.29 107.5v-6.575h.027c.226 1.362.353 1.826.593 2.67l1.073 3.905h2.485l1.102-3.906c.225-.8.395-1.461.564-2.529h.029v6.435h2.696V97.103h-3.826l-1.652 7.053h-.028l-1.835-7.053h-3.742V107.5h2.513z"/></g><g><g transform="translate(72.264 97.566)"><mask id="n" fill="#fff"><use xlink:href="#m"/></mask><path fill="#F9C30E" mask="url(#n)" d="M-5.282 43.812H32.28V-4.775H-5.28z"/></g><path d="M94.614 123.888l-.965.45.376.999c.163.434.244.881.241 1.343-.012 2.312-2.179 4.266-4.947 4.342l-1.112.03-.006 1.114-.013 2.445-4.743-.028.015-2.444.006-1.114-1.111-.043c-2.768-.107-4.912-2.085-4.899-4.399.002-.458.089-.903.259-1.343l.385-.992-.959-.462c-1.956-.941-3.133-2.693-3.122-4.598.01-1.712 1.028-3.349 2.713-4.321l1.078-.623-.706-1.027a4.387 4.387 0 0 1-.792-2.506c.012-1.926 1.323-3.669 3.397-4.455l.833-.316-.099-.888a4.167 4.167 0 0 1-.027-.475c.014-2.599 2.495-4.757 5.598-4.74 3.1.017 5.557 2.205 5.543 4.797-.002.15-.014.313-.034.483l-.11.886.83.326c2.066.811 3.357 2.566 3.346 4.49a4.377 4.377 0 0 1-.823 2.5l-.716 1.02 1.072.633c1.675.993 2.674 2.637 2.665 4.35-.011 1.908-1.207 3.645-3.173 4.566m5.472-4.553c.011-2.2-1.063-4.268-2.86-5.694a6.566 6.566 0 0 0 .661-2.81c.016-2.643-1.562-5.009-4.037-6.281-.042-3.893-3.554-6.991-7.824-7.015-4.275-.024-7.823 3.038-7.902 6.924-2.49 1.243-4.094 3.59-4.11 6.239a6.586 6.586 0 0 0 .63 2.814c-1.813 1.405-2.91 3.464-2.924 5.664-.014 2.516 1.345 4.804 3.572 6.204a5.984 5.984 0 0 0-.135 1.19c-.018 3.276 2.583 5.982 5.998 6.586l-.012 1.792a1.923 1.923 0 0 0 1.91 1.935l5.5.031a1.922 1.922 0 0 0 1.932-1.91l.009-1.795c3.422-.566 6.053-3.242 6.071-6.516.003-.404-.042-.8-.12-1.192 2.241-1.375 3.626-3.647 3.641-6.166" fill="#42413E"/><g transform="translate(79.16 117.132)"><mask id="p" fill="#fff"><use xlink:href="#o"/></mask><path fill="#42413E" mask="url(#p)" d="M-5.24 11.343H9.826v-16.17H-5.24z"/></g><g transform="translate(79.16 109.075)"><mask id="r" fill="#fff"><use xlink:href="#q"/></mask><path fill="#42413E" mask="url(#r)" d="M-5.195 11.348H9.87v-16.17H-5.195z"/></g><g transform="translate(84.908 105.623)"><mask id="t" fill="#fff"><use xlink:href="#s"/></mask><path fill="#42413E" mask="url(#t)" d="M-5.58 29.96H7.583V-4.833H-5.58z"/></g><g transform="translate(88.356 117.132)"><mask id="v" fill="#fff"><use xlink:href="#u"/></mask><path fill="#42413E" mask="url(#v)" d="M-5.567 11.383H9.534V-4.765h-15.1z"/></g><g transform="translate(88.356 109.075)"><mask id="x" fill="#fff"><use xlink:href="#w"/></mask><path fill="#42413E" mask="url(#x)" d="M-5.522 11.389H9.58V-4.76h-15.1z"/></g><g transform="translate(13.644 99.868)"><mask id="z" fill="#fff"><use xlink:href="#y"/></mask><path fill="#42413E" mask="url(#z)" d="M-4.88 13.385h15.395v-18.88H-4.88z"/></g><g transform="translate(5.598 96.415)"><mask id="B" fill="#fff"><use xlink:href="#A"/></mask><path fill="#42413E" mask="url(#B)" d="M-5.04 15.644h18.557V-4.743H-5.039z"/></g><g transform="translate(2.15 107.925)"><mask id="D" fill="#fff"><use xlink:href="#C"/></mask><path fill="#F9C30E" mask="url(#D)" d="M-5.747 34.985h40.79v-40.74h-40.79z"/></g><g transform="translate(1 106.774)"><mask id="F" fill="#fff"><use xlink:href="#E"/></mask><path fill="#42413E" mask="url(#F)" d="M-5.46 37.855h43.154v-43.05H-5.46z"/></g><g transform="translate(61.92 82.604)"><mask id="H" fill="#fff"><use xlink:href="#G"/></mask><path fill="#42413E" mask="url(#H)" d="M-4.95 17.217h29.11V-4.728H-4.95z"/></g><g transform="translate(32.034 79.15)"><mask id="J" fill="#fff"><use xlink:href="#I"/></mask><path fill="#F9C30E" mask="url(#J)" d="M-5.45 26.73h49.627V-4.678H-5.451z"/></g><g transform="translate(56.172 81.453)"><mask id="L" fill="#fff"><use xlink:href="#K"/></mask><path fill="#42413E" mask="url(#L)" d="M-4.62 11.927H8.952v-17.25H-4.62z"/></g><g transform="translate(29.736 78)"><mask id="N" fill="#fff"><use xlink:href="#M"/></mask><path fill="#42413E" mask="url(#N)" d="M-4.899 28.184H47.03V-5.419H-4.9z"/></g><g transform="translate(48.126 90.66)"><mask id="P" fill="#fff"><use xlink:href="#O"/></mask><path fill="#42413E" mask="url(#P)" d="M-5.662 12.198H7.909v-17.25H-5.662z"/></g><g transform="translate(40.08 113.68)"><mask id="R" fill="#fff"><use xlink:href="#Q"/></mask><path fill="#42413E" mask="url(#R)" d="M-5.402 23.209h20.586V-5.18H-5.402z"/></g><g transform="translate(51.575 109.075)"><mask id="T" fill="#fff"><use xlink:href="#S"/></mask><path fill="#42413E" mask="url(#T)" d="M-5.285 21.798h23.438V-4.906H-5.285z"/></g><g transform="translate(49.276 126.34)"><mask id="V" fill="#fff"><use xlink:href="#U"/></mask><path fill="#42413E" mask="url(#V)" d="M-5.26 15.726h28.162V-5.297H-5.26z"/></g></g><g><path fill="#42413E" d="M442 143.84h95.238v-55.3H442z"/><path fill="#F8C216" d="M442 143.84h95.238v-55.3H442z"/><path d="M461.048 138.397c0 .872.71 1.58 1.587 1.58.876 0 1.587-.708 1.587-1.58V95.102c0-.874-.71-1.58-1.587-1.58-.876 0-1.587.706-1.587 1.58v43.295z" fill="#42413E"/><g transform="translate(461.048 93.28)"><mask id="X" fill="#fff"><use xlink:href="#W"/></mask><path fill="#42413E" mask="url(#X)" d="M-7.937 54.597h19.048V-7.658H-7.937z"/></g><path d="M478.508 138.397c0 .872.711 1.58 1.587 1.58s1.588-.708 1.588-1.58V95.102c0-.874-.712-1.58-1.588-1.58-.876 0-1.587.706-1.587 1.58v43.295z" fill="#42413E"/><g transform="translate(478.508 93.28)"><mask id="Z" fill="#fff"><use xlink:href="#Y"/></mask><path fill="#42413E" mask="url(#Z)" d="M-7.937 54.597h19.048V-7.658H-7.937z"/></g><path d="M497.556 138.397c0 .872.71 1.58 1.587 1.58.876 0 1.587-.708 1.587-1.58V95.102c0-.874-.711-1.58-1.587-1.58s-1.587.706-1.587 1.58v43.295z" fill="#42413E"/><g transform="translate(497.556 93.28)"><mask id="ab" fill="#fff"><use xlink:href="#aa"/></mask><path fill="#42413E" mask="url(#ab)" d="M-7.937 54.597h19.048V-7.658H-7.937z"/></g><path d="M515.016 138.397c0 .872.711 1.58 1.587 1.58s1.587-.708 1.587-1.58V95.102c0-.874-.71-1.58-1.587-1.58-.876 0-1.587.706-1.587 1.58v43.295z" fill="#42413E"/><g transform="translate(515.016 93.28)"><mask id="ad" fill="#fff"><use xlink:href="#ac"/></mask><path fill="#42413E" mask="url(#ad)" d="M-7.937 54.597h19.048V-7.658H-7.937z"/></g><path d="M531.957 102.76c.876 0 1.587-.708 1.587-1.58 0-.872-.71-1.58-1.587-1.58h-82.952c-.876 0-1.588.708-1.588 1.58 0 .872.712 1.58 1.588 1.58h82.952z" fill="#42413E"/><g transform="translate(446.762 99.6)"><mask id="af" fill="#fff"><use xlink:href="#ae"/></mask><path fill="#42413E" mask="url(#af)" d="M-7.281 11.06h102V-7.9h-102z"/></g><path d="M531.957 116.98c.876 0 1.587-.708 1.587-1.58 0-.872-.71-1.58-1.587-1.58h-82.952c-.876 0-1.588.708-1.588 1.58 0 .872.712 1.58 1.588 1.58h82.952z" fill="#42413E"/><g transform="translate(446.762 113.82)"><mask id="ah" fill="#fff"><use xlink:href="#ag"/></mask><path fill="#42413E" mask="url(#ah)" d="M-7.281 11.06h102V-7.9h-102z"/></g><path d="M531.957 131.2c.876 0 1.587-.708 1.587-1.58 0-.872-.71-1.58-1.587-1.58h-82.952c-.876 0-1.588.708-1.588 1.58 0 .872.712 1.58 1.588 1.58h82.952z" fill="#42413E"/><g transform="translate(446.762 128.04)"><mask id="aj" fill="#fff"><use xlink:href="#ai"/></mask><path fill="#42413E" mask="url(#aj)" d="M-7.281 11.06h102V-7.9h-102z"/></g><g fill="#42413E"><path d="M445.197 143.445h92.063v-66.36h-92.063v66.36zm95.238-67.94c0-.872-.711-1.58-1.587-1.58H443.61c-.877 0-1.588.708-1.588 1.58v69.52c0 .872.711 1.58 1.588 1.58h95.238c.876 0 1.587-.708 1.587-1.58v-69.52z"/><path d="M461.048 82.5c0 .873.71 1.58 1.587 1.58.876 0 1.587-.707 1.587-1.58V71.16c0-.873-.71-1.58-1.587-1.58-.876 0-1.587.707-1.587 1.58V82.5z"/></g><g transform="translate(461.048 69.58)"><mask id="al" fill="#fff"><use xlink:href="#ak"/></mask><path fill="#42413E" mask="url(#al)" d="M-7.937 22.401h19.048V-7.9H-7.937z"/></g><path d="M488.032 82.5c0 .873.71 1.58 1.587 1.58.876 0 1.587-.707 1.587-1.58V71.16c0-.873-.71-1.58-1.587-1.58-.876 0-1.587.707-1.587 1.58V82.5z" fill="#42413E"/><g transform="translate(488.032 69.58)"><mask id="an" fill="#fff"><use xlink:href="#am"/></mask><path fill="#42413E" mask="url(#an)" d="M-7.937 22.401h19.048V-7.9H-7.937z"/></g><path d="M515.016 82.5c0 .873.711 1.58 1.587 1.58s1.587-.707 1.587-1.58V71.16c0-.873-.71-1.58-1.587-1.58-.876 0-1.587.707-1.587 1.58V82.5z" fill="#42413E"/><g transform="translate(515.016 69.58)"><mask id="ap" fill="#fff"><use xlink:href="#ao"/></mask><path fill="#42413E" mask="url(#ap)" d="M-7.937 22.401h19.048V-7.9H-7.937z"/></g><path fill="#42413E" d="M442 90.12h95.376v-3.16H442z"/><g transform="translate(442 86.96)"><mask id="ar" fill="#fff"><use xlink:href="#aq"/></mask><path fill="#42413E" mask="url(#ar)" d="M-7.937 11.06h111.25V-7.9H-7.937z"/></g></g></g></svg>