<svg width="790" height="102" viewBox="0 0 790 102" xmlns="http://www.w3.org/2000/svg"><title>Artboard</title><g fill="none" fill-rule="evenodd"><g fill="#42413E"><path d="M64.881 50.826c-.367-1.895-1.828-2.399-3.463-2.56-5.28-.52-6.217 3.68-6.217 5.453 0 3.034.833 5.543 6.017 5.543.956 0 3.596-1.048 3.596-2.749h7.456c-.3 5.047-8.274 6.256-11.752 6.256-7.205 0-13.374-1.428-13.076-8.982.213-5.391 5.001-9.175 14.524-8.938 5.31.13 10.408 1.892 10.43 5.977h-7.515M141.438 50.826c-.368-1.895-1.829-2.399-3.463-2.56-5.281-.52-6.216 3.68-6.216 5.453 0 3.034.832 5.543 6.017 5.543.955 0 3.594-1.048 3.594-2.749h7.457c-.3 5.047-8.274 6.256-11.752 6.256-7.206 0-13.374-1.428-13.076-8.982.213-5.391 5.002-9.175 14.523-8.938 5.31.13 10.409 1.892 10.431 5.977h-7.515M74.477 45.672h9.98l8.517 12.313h.07V45.672h6.397v17.097h-9.563l-8.934-12.313h-.07v12.313h-6.397V45.672M101.521 45.672h11.684c5.616 0 8.919 1.679 8.919 4.215 0 1.497-1.383 3.347-4.466 3.89v.048c3.712.237 5.083 2.748 5.083 4.254 0 3.013-3.221 4.69-9.502 4.69h-11.718V45.672zm6.764 6.643h1.937c2.983 0 4.566-.248 4.566-1.575 0-1.42-1.317-1.894-4.002-1.894h-2.501v3.469zm0 6.872h1.937c3.596 0 4.915-.404 4.915-1.73 0-1.42-1.666-1.895-4.351-1.895h-2.501v3.625z"/></g><path d="M37.073 61.82c-.65.289-1.369.418-2.135.418l-30.69-.025c-1.736-.136-3.44-1.576-3.925-3.297-.516-1.721-.016-3.5 1.118-4.754 1.094-1.134 2.502-1.608 4.065-1.432-1.47-1.005-2.087-2.67-1.876-4.456.195-1.552 1.313-3.064 2.744-3.684 1.634-.74 3.697-.337 4.98.91-.266-.91-.407-2.213-.04-3.146.438-1.472 1.86-2.783 3.307-3.088 1.93-.418 3.768.314 4.878 1.978.21.314.336.668.5.998.555-1.593 2.158-2.912 3.784-3.081 1.68-.217 3.268.507 4.323 1.93.82 1.183 1.102 2.944.57 4.368h.063c1.22-1.102 3.064-1.504 4.636-.893 1.5.499 2.775 2.107 2.978 3.692.227 1.754-.367 3.29-1.688 4.424 2-.12 3.9.949 4.721 2.823.72 1.633.509 3.82-.711 5.148-.492.499-1.016.917-1.602 1.166" fill="#FFF"/><path d="M33.82 52.73l-11.35 7.633 3.822-9.137 1.814-4.255c.735-1.375 2.118-2.252 3.627-2.276 1.446 0 2.728.7 3.541 1.954.837 1.255.884 3.306.047 4.577-.375.595-.93 1.126-1.5 1.504" fill="#42413E" opacity=".4"/><path d="M28.168 45.523l-5.612 13.344-.25-1.455-1.69-10.94c-.07-.667.204-1.23.735-1.6l.806-.483c.047-.169-.188-.225-.297-.281l-1.58-.016c-.1-1.577.587-3.008 1.916-3.869 1.032-.676 2.603-.853 3.752-.306 1.493.612 2.533 2.212 2.556 3.845-.007.603-.109 1.223-.336 1.761" fill="#42413E" opacity=".8"/><path d="M17.389 58.916L11.862 45.54c-.595-1.432-.345-3.314.672-4.473 1.086-1.214 2.618-1.73 4.198-1.319 1.336.33 2.587 1.617 2.916 2.992.156.515.132 1.134.101 1.698l-2.36 14.478" fill="#42413E" opacity=".6"/><path d="M5.577 52.248c-1.134-.99-1.642-2.309-1.478-3.837.164-1.544 1.376-3.056 2.822-3.523 1.486-.466 3.103-.096 4.182 1.022.454.434.735.949.97 1.48l5.339 12.998-11.835-8.14" fill="#42413E" opacity=".4"/><path d="M4.364 61.743c-1.478-.168-2.616-.969-3.31-2.33-.704-1.375-.52-3.326.425-4.545 1.03-1.241 2.52-1.866 4.022-1.56.612.1 1.125.365 1.608.67l11.49 7.769-14.235-.004" fill="#42413E" opacity=".3"/><path d="M35.56 61.743c1.477-.168 2.615-.969 3.31-2.33.703-1.375.52-3.326-.425-4.545-1.03-1.241-2.521-1.866-4.023-1.56-.612.1-1.125.365-1.608.67l-11.49 7.769 14.235-.004" fill="#42413E" opacity=".5"/><g fill="#42413E"><path d="M160 46.057v12.132c0 6.712 5.585 12.131 12.502 12.131h12.52v-8.219h-12.52c-2.22 0-4.032-1.759-4.032-3.912V53.45h14.018v-7.394H168.47v-6.82h16.552V31H160v15.057zm91.748 0v12.132c0 6.712 5.585 12.131 12.501 12.131h12.502v-8.219H264.25c-2.219 0-4.031-1.759-4.031-3.912V53.45h14.018v-7.394h-14.018v-6.82h16.552V31h-25.022v15.057zm-30.98-6.82h9.5V70.32h8.369V39.237h9.536V31h-27.405v8.237zm-30.98 3.913v27.17h8.357V58.476l10.71-2.656v14.5h8.338V31h-15.052c-6.843 0-12.353 5.456-12.353 12.15zm19.065 5.43l-10.724 2.676v-7.974c0-2.17 1.79-3.941 3.982-3.941h6.723v9.239h.019zm100.088-4.485c0-1.73-.33-3.44-1.006-5.044a13.192 13.192 0 0 0-2.797-4.16 13.52 13.52 0 0 0-4.15-2.828A13.284 13.284 0 0 0 295.723 31h-14.187v39.32h8.355V57.226h5.74c.44 0 .841-.018 1.262-.072l4.516 13.166h7.532l-5.375-15.688c3.218-2.414 5.375-6.214 5.375-10.537zm-13.299 4.778h-5.766V39.34h5.784l.33.017c2.572.194 4.61 2.256 4.61 4.775.036 2.59-2.222 4.74-4.958 4.74z"/></g><g fill="#42413E"><path d="M391.39 46.47c0 3.002-.301 12.31-.301 12.31 0 1.802.6 2.603 2.302 2.603v.8h-6.706v-.8c1.702 0 2.602-.801 2.602-2.603l.601-15.212c-.5-1.202-1-1.602-2.302-1.702v-.7h5.104l5.405 14.211 5.504-14.211h4.605v.7c-1.301 0-2.002.6-2.002 2.002l.6 14.712c0 2.202.4 2.803 2.202 2.803v.8h-7.706v-.8c1.501 0 2.202-.5 2.102-2.803 0 0-.301-10.308-.4-12.11l-3.704 10.21c-.5 1.3-1.001 2.801-1.401 4.402l-1.2.1c-.302-1.1-1.102-3.102-1.102-3.102s-3.103-8.707-4.203-11.61M385.084 62.284c-.4-.1-.801-.1-1.201-.1-.8 0-2.202.4-3.904.4-6.506 0-11.31-3.904-11.31-11.11 0-6.105 4.504-10.809 11.41-10.809 1.602 0 3.403.3 4.905.9.3-.3.4-.5.7-.8h.6c-.1 1.1-.5 4.704-.5 4.704h-.6c-.4-2.102-1.502-3.503-5.004-3.503-4.204 0-8.008 3.303-8.008 9.408 0 6.906 3.904 9.909 8.207 9.909 2.804 0 4.505-1.602 5.606-3.603l.7.3-1.6 4.304M366.168 45.068h-.701c-.1-1.901-.701-2.501-2.202-2.501h-2.902V58.28c0 2.602.5 3.103 2.201 3.103v.8h-7.506v-.8c1.701 0 2.202-.5 2.202-3.203V42.567h-2.903c-1.901 0-2.202.5-2.702 2.501h-.7l.5-4.503.5.1c.2.5.601.5 1.802.5h9.708c1.801 0 2.202 0 2.603-.6h.6l-.5 4.503"/><path d="M344.949 62.684c-1.401 0-2.501-.2-3.303-.5-.8-.2-1.4-.501-1.7-.7-.401.4-.702.9-.702.9l-.6-.2.5-4.705.701.1c.4 2.202 1.902 3.804 5.005 3.804 2.402 0 4.002-2.002 4.002-4.203 0-1.803-.7-2.703-3.102-4.505-.801-.5-1.501-.9-2.102-1.4-2.202-1.402-3.603-3.003-3.603-5.606 0-3.003 2.502-5.004 5.805-5.004 1.902 0 3.103.6 3.503.8l.7-.8.501.1-.5 4.303-.701-.1c0-2-1.2-2.902-3.203-2.902-1.901 0-3.302 1.001-3.302 2.903 0 1.7 1.3 2.802 2.802 3.803.8.5 1.401.9 2.002 1.3 3.503 2.503 4.303 4.105 4.303 6.507 0 3.503-2.702 6.105-7.006 6.105M333.54 45.068h-.8c0-1.801-.802-2.501-2.404-2.501h-4.503v7.906h2.902c1.502 0 1.802-.8 2.002-2.101h.7v5.604h-.7c-.2-1.501-.5-2.101-2.102-2.101h-2.802v6.705c0 2.502.6 2.803 2.202 2.803v.8h-7.607v-.8c1.902 0 2.202-.5 2.202-2.803V43.868c0-1.401-.6-2.002-2.202-2.002v-.7h10.409c1.802 0 2.202-.1 2.502-.701h.701l-.5 4.603M441.532 46.27v12.01c0 2.602.6 3.103 2.203 3.103v.8h-11.81v-.8c.9 0 1.7-.3 1.7-.9 0-.401-.1-1.102-.3-1.803l-.9-2.902h-6.606c-.1.4-1.302 3.703-1.302 4.604 0 .8.902 1 1.502 1v.801h-5.504v-.8c1 0 1.8-.1 2.501-2.202l5.105-16.314c-.3-.701-.701-.9-1.401-1.001v-.7h4.503l5.405 17.114c.5 1.802 1 2.703 1.802 3.103 1.2-.4 1.5-.801 1.5-3.103V43.868c-.9-1.202-1-2.002-2.701-2.002v-.7h5.104l8.407 14.312v-10.91c0-2.202-.5-2.702-2.201-2.702v-.7h11.21v.7c-.702 0-1.302.3-1.302 1 0 .501.2 1.002.4 1.602l3.203 6.906 3.103-6.706c.5-.9.6-1.401.6-1.901 0-.601-.4-.901-1.3-.901v-.7h5.304v.7c-1.301 0-2.102 1.201-2.702 2.602l-4.104 8.407v5.505c0 2.402.6 3.003 2.202 3.003v.8h-7.607v-.8c1.602 0 2.202-.6 2.202-3.003v-4.704l-4.404-9.308c-.8-1.801-1.1-2.202-1.601-2.502-1.001.4-1.301 1.101-1.301 2.703v15.413s.1 1.2.2 2.601l-1.301.1-9.809-16.413zm-12.51-1.001l-2.803 9.107h5.805l-3.002-9.107z"/><path d="M416.611 54.376h-1.501v4.304c0 2.202.6 2.703 2.302 2.703v.8h-7.707v-.8c1.602 0 2.202-.6 2.202-2.803V44.468c0-2.202-.6-2.602-2.202-2.602v-.7h5.805c5.605 0 8.907 1.7 8.907 6.304 0 4.805-4.003 6.906-7.806 6.906zm-1-11.81h-.501v10.31h.9c3.303 0 5.004-1.502 5.004-5.305 0-3.804-1.5-5.004-5.404-5.004zM381.681 58.18c-3.804 0-6.406-2.702-6.406-6.606 0-3.703 2.702-6.605 6.406-6.605 3.603 0 6.306 2.802 6.306 6.605 0 3.703-2.803 6.606-6.306 6.606zm0-12.01c-2.602 0-3.503 2.502-3.503 5.404 0 2.703.8 5.405 3.503 5.405 2.602 0 3.403-2.702 3.403-5.505 0-2.702-1-5.305-3.403-5.305zM337.643 56.979v-.701c1 0 1.201-.3 1.201-.6 0-.4-.1-.7-.2-1 0 0-.2-.802-.4-1.403h-3.904l-.4 1.302c-.1.3-.2.6-.2 1 0 .401.4.701 1.001.701v.701h-3.904v-.701c1 0 1.402-.3 1.802-1.401l3.003-9.007c-.1-.4-.401-.701-1.001-.701v-.7h3.202a1960.29 1960.29 0 0 0 3.303 9.608c.5 1.7 1 2.201 1.802 2.201v.701h-5.305zm-1.401-9.708l-1.501 4.904h3.102l-1.601-4.904z"/></g><g fill="#42413E"><path d="M523.864 70.4c-4.358 0-8.526-2.447-11.224-5.788-3.076-3.8-4.573-8.71-4.573-13.566 0-4.667 1.376-9.36 4.222-13.08 2.806-3.652 7.028-6.263 11.723-6.263 4.317 0 8.458 2.476 11.116 5.777 3.062 3.8 4.586 8.723 4.586 13.579 0 4.653-1.39 9.346-4.222 13.066-2.779 3.625-6.975 6.276-11.628 6.276zm9.186-19.354c0-5.37-1.915-18.788-9.16-18.788-7.27 0-9.159 13.404-9.159 18.788 0 5.383 1.902 18.8 9.16 18.8 7.244 0 9.159-13.43 9.159-18.8zM480.075 32.501H493.2v.38h-3.224l9.794 26.889 8.269-26.89h-3.251v-.379h7.082v.38h-3.13l-11.655 37.168L483.53 32.88h-3.454v-.379M568.447 31.852V44.77h-.296c-.553-2.542-1.335-5.018-2.698-7.263-1.619-2.624-4.195-5.572-7.555-5.572-7.716 0-8.417 13.863-8.417 19.152 0 4.735.377 9.617 2.091 14.054 1.2 3.11 2.94 4.639 6.165 4.639 2.563 0 5.288-1.299 6.65-3.53.35-.582.378-1.231.378-1.894v-9.982h-3.373v-.392h12.344v.392h-2.887v14.933h-.256c-.729-1.218-1.876-2.016-3.346-2.016-1.066 0-2.104.379-3.035.893l-.837.46c-1.888.838-3.696 1.447-5.786 1.447-9.578 0-14.678-10.239-14.678-18.734 0-6.208 2.361-12.85 7.38-16.73 2.252-1.746 4.977-3.03 7.877-3.03 1.134 0 2.253.35 3.305.77l.77.298c.876.324 1.834.636 2.778.636 1.174 0 2.226-.772 3.13-1.448h.296M572.13 32.501h13.167v.38h-3.494v28.66c0 4.491 4.614 7.223 8.647 7.223 4.343 0 8-3.03 8-7.48V32.88h-4.129v-.379h33.982v13.296h-.257c-.39-3.517-1.066-7.127-3.48-9.874-2.441-2.772-5.76-3.043-9.174-3.043h-3.682v17.097c.755.08 1.524.135 2.293.135 4.627 0 5.828-3.192 6.03-7.142h.337v15h-.337c-.58-3.584-2.158-7.425-6.354-7.425-.66 0-1.308.04-1.969.095v18.286h5.517c2.86 0 5.706-1.244 7.73-3.246 1.727-1.704 2.928-3.922 3.346-6.316.229-1.339.337-2.705.404-4.057h.297v13.999h-26.562v-.38h3.09V32.88h-6.53v28.513c0 5.897-5.584 8.507-10.818 8.507-5.923 0-12.452-2.88-12.452-9.67V32.88h-3.601v-.379"/></g><g fill="#42413E"><path d="M689.68 46.799h5.471v15.126h5.19V46.799h5.442v-4.546H689.68V46.8M725.141 44.777c-.93-.89-2.05-1.595-3.332-2.094-1.28-.499-2.684-.752-4.168-.752-1.505 0-2.912.253-4.183.752a10.24 10.24 0 0 0-3.332 2.093 9.543 9.543 0 0 0-2.213 3.216c-.528 1.243-.796 2.626-.796 4.112 0 1.486.268 2.87.796 4.112a9.539 9.539 0 0 0 2.213 3.215c.939.89 2.06 1.595 3.331 2.093 1.271.5 2.679.752 4.184.752 1.485 0 2.887-.253 4.168-.751 1.282-.5 2.403-1.204 3.332-2.094a9.64 9.64 0 0 0 2.197-3.215c.529-1.242.797-2.626.797-4.112 0-1.486-.268-2.87-.797-4.112a9.65 9.65 0 0 0-2.197-3.215m-5.353 12.463c-.64.286-1.363.432-2.147.432-.804 0-1.537-.146-2.177-.432a4.87 4.87 0 0 1-1.642-1.18 5.417 5.417 0 0 1-1.052-1.76 6.286 6.286 0 0 1-.376-2.196c0-.787.127-1.526.376-2.196a5.415 5.415 0 0 1 1.052-1.76 4.868 4.868 0 0 1 1.642-1.18c.64-.287 1.372-.432 2.177-.432.784 0 1.507.145 2.147.432a4.88 4.88 0 0 1 1.642 1.18c.45.498.803 1.09 1.052 1.76.25.672.376 1.41.376 2.196 0 .785-.127 1.524-.376 2.196a5.425 5.425 0 0 1-1.052 1.76c-.449.495-1.001.892-1.642 1.18M747.13 44.877c-.938-.841-2.067-1.496-3.357-1.946-1.288-.45-2.722-.678-4.26-.678h-8.259v19.672h8.287c1.522 0 2.945-.228 4.232-.677 1.29-.45 2.419-1.11 3.357-1.962a9.053 9.053 0 0 0 2.21-3.098c.528-1.205.796-2.59.796-4.113 0-1.525-.268-2.909-.796-4.113a8.904 8.904 0 0 0-2.21-3.085m-2.271 7.198a5.81 5.81 0 0 1-.361 2.034 4.99 4.99 0 0 1-1.037 1.686 5.01 5.01 0 0 1-1.67 1.152c-.66.287-1.423.433-2.266.433h-3.081V46.8h3.11c.883 0 1.665.135 2.326.402a4.553 4.553 0 0 1 1.654 1.122c.439.477.773 1.04.993 1.67.22.633.332 1.333.332 2.08M764.33 42.254h-6.428l-7.363 19.565-.04.106h5.875l.965-2.809h7.583l.965 2.809h5.875l-7.413-19.62-.019-.051zm-.836 12.317h-4.755l2.377-7.02 2.378 7.02zM783.804 42.254l-4.14 7.12-4.174-7.082-.023-.038h-5.863l7.466 11.745v7.926h5.19v-7.926l7.437-11.745h-5.893M662.68 39.193c-12.13 0-22.039 9.526-22.65 21.505-.02.39-.03.78-.03 1.175h5.88c0-.382.013-.762.04-1.138.586-8.734 7.88-15.662 16.76-15.662 8.915 0 16.231 6.98 16.768 15.764.022.342.033.688.033 1.036h5.879c0-.311-.006-.622-.019-.93-.487-12.095-10.446-21.75-22.66-21.75"/><path d="M662.68 46.754c-8.016 0-14.574 6.238-15.087 14.123-.022.33-.033.661-.033.996h5.88c0-.362.021-.718.062-1.07.532-4.592 4.446-8.17 9.178-8.17 4.758 0 8.688 3.615 9.186 8.241.037.33.054.661.054 1h5.88c0-.324-.01-.644-.03-.962-.495-7.903-7.062-14.158-15.09-14.158"/><path d="M662.68 54.313a7.56 7.56 0 0 0-7.56 7.56h15.12a7.56 7.56 0 0 0-7.56-7.56"/></g></g></svg>